<?xml version="1.0" encoding="utf-8"?>
<!-- Generator: Adobe Illustrator 27.9.0, SVG Export Plug-In . SVG Version: 6.00 Build 0)  -->
<svg version="1.1" id="Layer_1" xmlns="http://www.w3.org/2000/svg" xmlns:xlink="http://www.w3.org/1999/xlink" x="0px" y="0px"
	 viewBox="0 0 4000 4000" style="enable-background:new 0 0 4000 4000;" xml:space="preserve">
<g>
	<g>
		<path d="M1965.74,4216.24c-1.54,0-3.07-0.59-4.24-1.76L-627.98,1625c-1.43-1.43-2.04-3.48-1.63-5.46
			c0.41-1.98,1.78-3.62,3.66-4.36l2589.48-1029.6c1.42-0.57,3.01-0.57,4.43,0l2589.48,1029.6c1.88,0.75,3.25,2.39,3.66,4.36
			c0.41,1.98-0.21,4.03-1.63,5.46L1969.99,4214.48C1968.82,4215.65,1967.28,4216.24,1965.74,4216.24z M-613.04,1622.96
			l2578.79,2578.79l2578.79-2578.79L1965.75,597.62L-613.04,1622.96z"/>
	</g>
	<g>
		<path d="M2352.82,3829.16c-1.41,0-2.82-0.49-3.96-1.49l-2652.39-2331.3c-2.49-2.19-2.73-5.98-0.55-8.47
			c2.19-2.49,5.98-2.73,8.47-0.55l2652.39,2331.3c2.49,2.19,2.73,5.98,0.55,8.47C2356.14,3828.47,2354.48,3829.16,2352.82,3829.16z"
			/>
	</g>
	<g>
		<path d="M2693.04,3488.95c-1.29,0-2.6-0.42-3.7-1.28l-2692-2110.61c-2.61-2.04-3.06-5.82-1.02-8.42c2.04-2.61,5.82-3.06,8.42-1.02
			l2692,2110.61c2.61,2.04,3.06,5.82,1.02,8.42C2696.58,3488.16,2694.82,3488.95,2693.04,3488.95z"/>
	</g>
	<g>
		<path d="M2994.42,3187.56c-1.2,0-2.41-0.36-3.46-1.1L277.11,1266.09c-2.7-1.91-3.35-5.66-1.43-8.36c1.91-2.7,5.66-3.35,8.36-1.43
			l2713.85,1920.37c2.71,1.91,3.35,5.66,1.43,8.36C2998.15,3186.68,2996.3,3187.56,2994.42,3187.56z"/>
	</g>
	<g>
		<path d="M3263.26,2918.73c-1.11,0-2.24-0.31-3.25-0.96L537.92,1162.62c-2.78-1.8-3.59-5.51-1.79-8.29
			c1.8-2.79,5.51-3.59,8.29-1.79l2722.09,1755.14c2.78,1.8,3.59,5.51,1.79,8.29C3267.16,2917.75,3265.23,2918.73,3263.26,2918.73z"
			/>
	</g>
	<g>
		<path d="M3504.55,2677.43c-1.04,0-2.09-0.27-3.05-0.84L781.63,1065.92c-2.85-1.69-3.79-5.37-2.11-8.22
			c1.69-2.85,5.37-3.79,8.22-2.11l2719.87,1610.67c2.85,1.69,3.79,5.37,2.11,8.22C3508.6,2676.38,3506.6,2677.43,3504.55,2677.43z"
			/>
	</g>
	<g>
		<path d="M3722.33,2459.65c-0.97,0-1.96-0.24-2.88-0.74L1009.88,975.34c-2.91-1.59-3.97-5.24-2.38-8.14
			c1.59-2.91,5.24-3.97,8.15-2.38l2709.58,1483.58c2.91,1.59,3.97,5.24,2.38,8.14C3726.51,2458.53,3724.45,2459.65,3722.33,2459.65z
			"/>
	</g>
	<g>
		<path d="M3919.87,2262.11c-0.92,0-1.85-0.21-2.72-0.65L1224.08,890.32c-2.95-1.5-4.13-5.12-2.62-8.07
			c1.5-2.95,5.12-4.13,8.07-2.62L3922.6,2250.77c2.95,1.5,4.13,5.12,2.62,8.07C3924.16,2260.92,3922.06,2262.11,3919.87,2262.11z"/>
	</g>
	<g>
		<path d="M4099.87,2082.12c-0.86,0-1.74-0.19-2.57-0.58L1425.49,810.36c-2.99-1.42-4.26-5-2.84-8c1.42-2.99,5-4.26,8-2.84
			L4102.45,2070.7c2.99,1.42,4.26,5,2.84,8C4104.26,2080.85,4102.11,2082.12,4099.87,2082.12z"/>
	</g>
	<g>
		<path d="M4264.56,1917.43c-0.82,0-1.65-0.17-2.44-0.52L1615.23,735.03c-3.03-1.35-4.38-4.9-3.03-7.92s4.9-4.38,7.92-3.03
			l2646.89,1181.87c3.03,1.35,4.38,4.9,3.03,7.92C4269.05,1916.1,4266.86,1917.43,4264.56,1917.43z"/>
	</g>
	<g>
		<path d="M4415.82,1766.17c-0.78,0-1.56-0.15-2.32-0.47L1794.29,663.94c-3.05-1.29-4.49-4.8-3.2-7.86c1.29-3.05,4.8-4.49,7.86-3.2
			l2619.21,1101.76c3.05,1.29,4.49,4.8,3.2,7.86C4420.39,1764.79,4418.17,1766.17,4415.82,1766.17z"/>
	</g>
	<g>
		<path d="M1578.67,3829.16c-1.67,0-3.32-0.69-4.51-2.04c-2.19-2.49-1.94-6.28,0.55-8.47L4227.1,1487.36
			c2.49-2.19,6.28-1.94,8.47,0.55c2.19,2.49,1.94,6.28-0.55,8.47L1582.63,3827.67C1581.49,3828.67,1580.08,3829.16,1578.67,3829.16z
			"/>
	</g>
	<g>
		<path d="M1238.45,3488.94c-1.78,0-3.54-0.79-4.73-2.3c-2.04-2.61-1.59-6.38,1.02-8.42l2692-2110.6c2.61-2.04,6.38-1.59,8.42,1.02
			c2.04,2.61,1.59,6.38-1.02,8.42l-2692,2110.6C1241.05,3488.53,1239.75,3488.94,1238.45,3488.94z"/>
	</g>
	<g>
		<path d="M937.07,3187.56c-1.88,0-3.73-0.88-4.9-2.54c-1.91-2.71-1.27-6.45,1.43-8.36L3647.45,1256.3
			c2.71-1.91,6.45-1.27,8.36,1.43c1.91,2.71,1.27,6.45-1.43,8.36L940.53,3186.46C939.48,3187.2,938.27,3187.56,937.07,3187.56z"/>
	</g>
	<g>
		<path d="M668.23,2918.72c-1.97,0-3.9-0.97-5.05-2.75c-1.8-2.79-0.99-6.5,1.79-8.29l2722.09-1755.14c2.79-1.8,6.5-0.99,8.29,1.79
			c1.8,2.79,0.99,6.5-1.79,8.29L671.48,2917.77C670.47,2918.41,669.35,2918.72,668.23,2918.72z"/>
	</g>
	<g>
		<path d="M426.94,2677.43c-2.05,0-4.05-1.05-5.17-2.94c-1.69-2.85-0.75-6.53,2.11-8.22l2719.87-1610.67
			c2.85-1.69,6.53-0.75,8.22,2.1c1.69,2.85,0.75,6.53-2.11,8.22L429.99,2676.59C429.03,2677.16,427.98,2677.43,426.94,2677.43z"/>
	</g>
	<g>
		<path d="M209.16,2459.65c-2.12,0-4.18-1.13-5.27-3.12c-1.59-2.91-0.53-6.55,2.38-8.14L2915.86,964.81
			c2.91-1.59,6.55-0.53,8.14,2.38c1.59,2.91,0.53,6.55-2.38,8.14L212.04,2458.91C211.12,2459.41,210.14,2459.65,209.16,2459.65z"/>
	</g>
	<g>
		<path d="M11.62,2262.11c-2.19,0-4.29-1.2-5.35-3.28c-1.5-2.95-0.33-6.57,2.62-8.07L2701.97,879.62c2.95-1.5,6.57-0.33,8.07,2.62
			c1.5,2.95,0.33,6.57-2.62,8.07L14.34,2261.46C13.47,2261.9,12.54,2262.11,11.62,2262.11z"/>
	</g>
	<g>
		<path d="M-168.38,2082.11c-2.24,0-4.39-1.26-5.42-3.42c-1.42-2.99-0.15-6.57,2.84-8L2500.85,799.53c2.99-1.42,6.57-0.15,8,2.84
			c1.42,2.99,0.15,6.57-2.84,8L-165.8,2081.53C-166.63,2081.93-167.51,2082.11-168.38,2082.11z"/>
	</g>
	<g>
		<path d="M-333.07,1917.42c-2.29,0-4.49-1.32-5.48-3.56c-1.35-3.03,0.01-6.57,3.03-7.92L2311.37,724.08
			c3.03-1.35,6.58,0.01,7.92,3.03c1.35,3.03-0.01,6.57-3.03,7.92L-330.63,1916.9C-331.42,1917.26-332.25,1917.42-333.07,1917.42z"/>
	</g>
	<g>
		<path d="M-484.33,1766.16c-2.34,0-4.57-1.38-5.53-3.67c-1.28-3.05,0.15-6.57,3.2-7.86L2132.56,652.88
			c3.05-1.28,6.57,0.15,7.86,3.2c1.29,3.05-0.15,6.57-3.2,7.86L-482,1765.69C-482.76,1766.01-483.55,1766.16-484.33,1766.16z"/>
	</g>
</g>
</svg>
