<?xml version="1.0" encoding="utf-8"?>
<!-- Generator: Adobe Illustrator 27.9.0, SVG Export Plug-In . SVG Version: 6.00 Build 0)  -->
<svg version="1.1" id="Layer_1" xmlns="http://www.w3.org/2000/svg" xmlns:xlink="http://www.w3.org/1999/xlink" x="0px" y="0px"
	 viewBox="0 0 4000 4000" style="enable-background:new 0 0 4000 4000;" xml:space="preserve">
<g>
	<g>
		<g>
			<g>
				<path d="M546.48,2743.45c-182.55,0-364.94-0.08-546.48-0.26c-0.83,0-1.5-0.67-1.5-1.5c0-0.83,0.67-1.5,1.5-1.5c0,0,0,0,0,0
					c577.66,0.59,1164.98,0.06,1732.96-0.45c389.34-0.35,785.68-0.71,1183.45-0.71c361.35,0,723.87,0.29,1083.58,1.15
					c0.83,0,1.5,0.68,1.5,1.5c0,0.83-0.67,1.5-1.5,1.5c0,0,0,0,0,0c-359.67-0.86-722.27-1.15-1083.58-1.15
					c-397.82,0-794.07,0.36-1183.45,0.71C1343.48,2743.09,944.8,2743.45,546.48,2743.45z"/>
			</g>
		</g>
		<g>
			<g>
				<path d="M1828.11,2705.39c-143.12,0-286.59-7.88-426.69-15.58c-109.72-6.03-223.18-12.26-334.55-14.59
					c-186.15-3.9-374.85,5.2-557.33,14c-166.88,8.05-339.43,16.36-509.55,14.72c-0.83-0.01-1.49-0.69-1.49-1.51
					c0.01-0.83,0.71-1.45,1.51-1.49c170.03,1.64,342.54-6.68,509.38-14.72c182.53-8.8,371.28-17.9,557.54-14
					c111.42,2.33,224.9,8.57,334.65,14.6c197.11,10.83,400.94,22.03,600.91,11.11c190.25-10.39,382.71-32.37,568.84-53.62
					c134.82-15.39,274.23-31.31,411.73-42.71c98.88-8.19,205.18-6.47,324.96,5.26c106.88,10.47,214.75,27.81,319.08,44.57
					c121.32,19.5,246.77,39.66,373.01,49.52c0.83,0.06,1.44,0.79,1.38,1.61c-0.06,0.82-0.79,1.43-1.61,1.38
					c-126.37-9.87-251.88-30.05-373.25-49.55c-208.13-33.45-423.34-68.04-643.31-49.81c-137.45,11.39-276.84,27.31-411.64,42.7
					c-186.17,21.26-378.68,43.24-569.02,53.64C1944.71,2704.08,1886.44,2705.39,1828.11,2705.39z"/>
			</g>
		</g>
		<g>
			<g>
				<path d="M4000,2686.21c-0.05,0-0.11,0-0.16-0.01c-137.11-14.96-268.01-56.15-394.6-95.99c-35.63-11.21-72.48-22.81-109.12-33.72
					c-157.79-47-301.18-57.24-479.44-34.23c-141.92,18.32-285.15,45.26-423.66,71.32c-192.36,36.19-391.28,73.6-589.83,88.52
					c-37.76,2.84-75.66,4.1-113.6,4.1c-162.11,0-325.18-23.11-483.9-45.61c-108.64-15.4-220.99-31.32-330.96-39.47
					c-208.61-15.47-415.93,12.94-616.41,40.42c-149.39,20.47-303.86,41.65-458.29,44.67c-0.81,0.01-1.51-0.64-1.53-1.47
					c-0.02-0.83,0.64-1.51,1.47-1.53c154.25-3.02,308.64-24.18,457.94-44.64c200.64-27.5,408.11-55.93,617.04-40.44
					c110.07,8.16,222.46,24.09,331.15,39.49c195.7,27.73,398.06,56.41,596.85,41.48c198.39-14.9,397.21-52.3,589.5-88.48
					c138.56-26.06,281.83-53.01,423.83-71.34c178.71-23.06,322.47-12.8,480.68,34.33c36.66,10.92,73.52,22.52,109.17,33.74
					c132.27,41.62,257.21,80.93,394.03,95.87c0.82,0.09,1.42,0.83,1.33,1.65C4001.41,2685.64,4000.76,2686.21,4000,2686.21z"/>
			</g>
		</g>
		<g>
			<g>
				<path d="M4000,2669.73c-0.05,0-0.1,0-0.15-0.01c-139.86-13.69-260.15-63.42-387.5-116.08c-34.88-14.42-70.96-29.34-107.28-43.36
					c-149-57.55-291.6-70.16-476.82-42.16c-143.89,21.75-288.39,56.1-428.14,89.31c-194.28,46.17-395.17,93.92-597.69,108.64
					c-198.27,14.41-396.68-30.6-588.55-74.13c-108.33-24.58-220.36-49.99-330.48-64.18c-219.23-28.24-431.15,20.21-636.08,67.06
					c-144.91,33.13-294.75,67.39-447.24,74.9c-0.85,0.02-1.53-0.6-1.57-1.42c-0.04-0.83,0.6-1.53,1.42-1.57
					c152.22-7.5,301.94-41.73,446.72-74.83c102.69-23.48,208.87-47.75,314.52-62.09c118.47-16.08,224-17.72,322.62-5.02
					c110.26,14.21,222.36,39.63,330.76,64.23c191.66,43.48,389.85,88.44,587.67,74.06c202.28-14.7,403.05-62.42,597.22-108.56
					c139.81-33.23,284.38-67.59,428.39-89.36c91.76-13.87,168.81-17.7,242.5-12.04c79.86,6.13,157.01,23.91,235.85,54.37
					c36.35,14.04,72.44,28.96,107.34,43.39c127.14,52.57,247.23,102.22,386.65,115.86c0.82,0.08,1.43,0.81,1.35,1.64
					C4001.42,2669.15,4000.76,2669.73,4000,2669.73z"/>
			</g>
		</g>
		<g>
			<g>
				<path d="M0,2634.23c-0.8,0-1.46-0.63-1.5-1.44c-0.04-0.83,0.61-1.53,1.43-1.56c158.87-6.79,312.13-49.63,460.35-91.06
					c100.59-28.12,204.61-57.19,308.8-74.44c116.83-19.34,221.85-21.49,321.08-6.56c115.35,17.35,230.17,48.62,341.21,78.86
					c183.59,49.99,373.43,101.68,569.61,91.26c203.85-10.83,404.53-64.56,598.6-116.53c140.43-37.6,285.64-76.48,430.95-98.82
					c92.58-14.23,169.75-18.23,242.84-12.58c82.68,6.39,159.52,25.47,234.92,58.34c36.73,16.01,72.65,33.04,107.4,49.51
					c123.73,58.65,240.59,114.06,384.4,122.01c0.83,0.04,1.46,0.75,1.41,1.58c-0.04,0.83-0.76,1.49-1.58,1.41
					c-144.39-7.99-261.52-63.51-385.52-122.3c-34.72-16.46-70.62-33.48-107.31-49.47c-141.14-61.53-283.53-75.15-476.11-45.55
					c-145.16,22.31-290.28,61.17-430.63,98.75c-194.22,52-395.05,105.78-599.21,116.62c-88.24,4.69-182.75-2.73-288.94-22.67
					c-94.65-17.78-189.7-43.66-281.62-68.69c-110.96-30.21-225.7-61.46-340.87-78.78c-220.47-33.16-427.96,24.83-628.62,80.92
					c-148.38,41.47-301.81,84.36-461.03,91.16C0.04,2634.23,0.02,2634.23,0,2634.23z"/>
			</g>
		</g>
		<g>
			<g>
				<path d="M4000,2583.72c-0.03,0-0.06,0-0.09,0c-143.66-8.79-261.98-62.45-387.25-119.26c-34.72-15.75-70.62-32.03-107.18-47.33
					c-141.85-59.39-289.06-73.22-477.32-44.85c-143.59,21.64-287.12,59.72-425.92,96.54c-191.88,50.9-390.29,103.54-592.02,113.63
					c-90.73,4.54-188.2-4.4-298-27.31c-97.83-20.42-196.1-49.79-291.13-78.18c-111.28-33.25-226.34-67.63-340.93-87.68
					c-224.12-39.2-433.52,27.22-636.03,91.46c-142.79,45.29-290.44,92.13-444.02,102.99c-0.83,0.07-1.54-0.56-1.6-1.39
					c-0.06-0.83,0.56-1.54,1.39-1.6c153.22-10.83,300.7-57.62,443.32-102.86c101.58-32.22,206.62-65.54,311.97-85.14
					c118.11-21.97,224.58-24.07,325.49-6.42c114.76,20.07,229.91,54.48,341.27,87.76c189.97,56.77,386.4,115.47,588.12,105.38
					c201.42-10.08,399.68-62.67,591.4-113.54c138.88-36.85,282.49-74.95,426.24-96.61c90.67-13.66,170.22-17.54,243.2-11.86
					c82.51,6.43,159.62,25.04,235.73,56.91c36.6,15.32,72.52,31.61,107.26,47.37c125.01,56.69,243.08,110.24,386.19,119
					c0.83,0.05,1.46,0.76,1.41,1.59C4001.45,2583.11,4000.79,2583.72,4000,2583.72z"/>
			</g>
		</g>
		<g>
			<g>
				<path d="M1991.44,2542.5c-83.32,0-172.76-10.2-271.96-30.95c-103.65-21.68-207.95-52.56-308.81-82.43
					c-117.07-34.67-238.13-70.51-357.89-91.78c-222.65-39.53-426.34,29.22-623.32,95.71c-137.42,46.39-279.51,94.36-429.33,107.07
					c-0.82,0.06-1.55-0.54-1.62-1.37c-0.07-0.83,0.54-1.55,1.37-1.62c149.45-12.68,291.37-60.59,428.62-106.92
					c98.88-33.38,201.13-67.9,304.17-88.3c115.47-22.87,220.35-25.33,320.63-7.52c119.93,21.3,241.07,57.17,358.22,91.86
					c201.75,59.74,410.37,121.51,622.5,112.34c195.54-8.46,388.12-57.94,574.36-105.79c135.43-34.8,275.48-70.78,415.67-90.74
					c88.87-12.66,168.12-16.1,242.27-10.54c82.21,6.17,159.4,23.34,235.99,52.5c36.54,13.91,72.59,28.72,107.45,43.04
					c127.51,52.37,247.95,101.84,390.33,110.09c0.83,0.05,1.46,0.76,1.41,1.58c-0.05,0.83-0.76,1.44-1.58,1.41
					c-142.88-8.27-263.55-57.83-391.29-110.31c-34.85-14.31-70.88-29.11-107.38-43.01c-145-55.21-292.04-68.1-476.77-41.79
					c-140.03,19.94-279.99,55.9-415.35,90.68c-186.39,47.89-379.12,97.41-574.98,105.88
					C2020.08,2542.2,2005.85,2542.5,1991.44,2542.5z"/>
			</g>
		</g>
		<g>
			<g>
				<path d="M2028.59,2508.7c-90.67,0-188.3-10.51-297.1-31.94c-110.83-21.82-222.54-52.65-330.58-82.46
					c-126.38-34.87-257.06-70.93-386.09-92.42c-167.9-27.96-320.43-12.62-494.58,49.74c-30.63,10.97-61.4,22.43-91.16,33.52
					c-142.44,53.06-276.97,103.17-428.96,116.14c-0.83,0.07-1.55-0.54-1.62-1.37c-0.07-0.82,0.54-1.55,1.37-1.62
					c151.58-12.93,285.93-62.98,428.17-115.96c29.77-11.09,60.55-22.55,91.19-33.53c174.65-62.55,327.65-77.93,496.08-49.88
					c129.19,21.52,259.95,57.6,386.4,92.49c216.12,59.63,439.6,121.29,665.4,113.64c187.63-6.36,372.53-51.85,551.34-95.84
					c130.85-32.19,266.16-65.47,401.63-83.23c178.4-23.38,329.76-11.56,476.33,37.2c36.55,12.16,72.79,25.14,107.85,37.68
					c130.55,46.73,253.87,90.88,395.81,97.42c0.83,0.04,1.47,0.74,1.43,1.57c-0.04,0.83-0.76,1.45-1.57,1.43
					c-142.39-6.56-265.91-50.78-396.68-97.59c-35.04-12.54-71.27-25.51-107.79-37.66c-146.13-48.61-297.06-60.4-475-37.08
					c-135.31,17.73-270.53,51-401.3,83.17c-178.96,44.03-364.02,89.55-551.96,95.92C2054.47,2508.48,2041.6,2508.7,2028.59,2508.7z"
					/>
			</g>
		</g>
		<g>
			<g>
				<path d="M2070.1,2480.3c-98.66,0-205.1-10.55-324.17-32.08c-118.29-21.39-237.67-51.37-353.13-80.36
					c-137.25-34.46-279.18-70.1-419.41-91.28c-175.77-26.55-326.13-12.13-487.55,46.75c-30.08,10.97-60.12,22.45-89.18,33.55
					c-130.87,49.99-254.48,97.2-396.54,108.01c-0.82,0.07-1.55-0.56-1.61-1.38c-0.06-0.83,0.56-1.55,1.38-1.61
					c141.62-10.78,265.04-57.92,395.7-107.82c29.07-11.1,59.13-22.58,89.23-33.56c161.92-59.06,312.74-73.52,489.02-46.89
					c140.38,21.21,282.37,56.86,419.69,91.34c230.93,57.98,469.72,117.93,710.21,111.93c178.98-4.47,355.43-45.93,526.08-86.02
					c125.81-29.56,255.89-60.12,386.19-75.71c171.14-20.47,326.16-10.17,473.91,31.48c36.59,10.32,73.08,21.37,108.36,32.06
					c133.73,40.52,260.04,78.79,401.76,83.19c0.83,0.03,1.48,0.72,1.45,1.55c-0.03,0.83-0.67,1.5-1.55,1.45
					c-142.12-4.42-268.62-42.75-402.54-83.32c-35.27-10.69-71.74-21.74-108.3-32.04c-147.36-41.55-302-51.81-472.74-31.39
					c-130.13,15.56-260.13,46.11-385.86,75.65c-170.8,40.13-347.41,81.62-526.69,86.1C2092.68,2480.16,2081.43,2480.3,2070.1,2480.3
					z"/>
			</g>
		</g>
		<g>
			<g>
				<path d="M2107.45,2455.44c-105.55,0-219.59-10.47-347.47-31.86c-125.18-20.94-251.65-50.15-373.96-78.4
					c-147.4-34.04-299.83-69.25-450.49-90.04c-184.72-25.49-333.1-12.41-481.08,42.41c-26.79,9.93-53.47,20.24-79.26,30.21
					c-123.09,47.59-239.36,92.54-375.1,100.87c-0.82,0.04-1.54-0.58-1.59-1.41c-0.05-0.83,0.58-1.54,1.41-1.59
					c135.28-8.3,251.33-53.17,374.2-100.67c25.8-9.98,52.49-20.29,79.3-30.23c148.48-55,297.29-68.14,482.54-42.57
					c150.79,20.81,303.28,56.03,450.75,90.09c244.59,56.49,497.53,114.92,751.61,109.88c171.37-3.39,340.37-41.72,503.81-78.79
					c120.5-27.33,245.1-55.59,369.91-69.71c80.24-9.08,160-11.68,237.08-7.72c79.42,4.08,158.39,15.24,234.7,33.18
					c36.66,8.62,73.38,17.89,108.88,26.86c136.63,34.5,265.68,67.1,407.34,69.68c0.83,0.02,1.49,0.7,1.47,1.53
					c-0.01,0.83-0.69,1.46-1.53,1.47c-142-2.6-271.21-35.23-408.02-69.78c-35.49-8.96-72.2-18.23-108.83-26.84
					c-149.92-35.24-308.31-43.79-470.75-25.41c-124.65,14.11-249.17,42.35-369.59,69.66c-163.58,37.1-332.74,75.46-504.41,78.86
					C2128.14,2455.34,2117.84,2455.44,2107.45,2455.44z"/>
			</g>
		</g>
		<g>
			<g>
				<path d="M2128.32,2432.28c-108.78,0-226.42-10.37-358.28-31.55c-130.93-21.02-263.33-50.48-391.38-78.98
					c-154-34.27-313.24-69.7-470.3-90.48c-193.48-25.59-335.87-14.34-476.09,37.62c-23.96,8.88-47.74,18.03-70.74,26.89
					c-118.02,45.43-229.5,88.33-361.46,94.48c-0.82,0.04-1.53-0.6-1.57-1.43c-0.04-0.83,0.6-1.53,1.43-1.57
					c131.48-6.12,242.73-48.94,360.52-94.28c23.01-8.86,46.8-18.01,70.78-26.9c75.27-27.89,152.42-43.95,235.84-49.1
					c72.66-4.48,149.45-0.88,241.69,11.31c157.19,20.79,316.5,56.24,470.56,90.52c256.1,56.99,520.92,115.92,785.9,110.04
					c165.17-3.66,327.88-40.47,485.24-76.06c116.54-26.36,237.05-53.62,357.88-67.3c87.75-9.93,181.51-9.18,286.64,2.3
					c93.74,10.24,187.79,27.89,278.75,44.96c137.94,25.88,280.57,52.65,426.3,54.5c0.83,0.01,1.49,0.69,1.48,1.52
					c-0.01,0.83-0.71,1.51-1.52,1.48c-145.99-1.85-288.75-28.64-426.81-54.55c-181.6-34.08-369.38-69.31-564.5-47.23
					c-120.67,13.66-241.1,40.9-357.56,67.25c-157.5,35.63-320.37,72.47-485.83,76.14
					C2153.08,2432.15,2140.75,2432.28,2128.32,2432.28z"/>
			</g>
		</g>
		<g>
			<g>
				<path d="M2123.03,2409.13c-106.4,0-221.59-10.41-350.26-31.58c-134.98-22.21-271.63-53.88-403.78-84.5
					c-154.32-35.76-313.89-72.75-470.06-94.35c-194.65-26.94-336.25-16.99-473.48,33.24c-21.89,8.02-43.6,16.22-64.59,24.16
					c-117.47,44.41-228.43,86.36-360.81,91.37c-0.84,0.06-1.52-0.62-1.56-1.44s0.61-1.52,1.44-1.56
					c131.89-4.99,242.62-46.85,359.86-91.18c21-7.94,42.71-16.15,64.62-24.17c74.26-27.19,151.07-42.48,234.82-46.74
					c71.64-3.65,147.93,0.59,240.11,13.34c156.3,21.63,315.94,58.62,470.32,94.4c264.52,61.3,538.04,124.69,809.18,115.02
					c162.14-5.78,321.46-43.64,475.54-80.25c114.15-27.12,232.18-55.17,350.71-70.05c89.57-11.25,185.77-11.75,294.09-1.53
					c96.59,9.12,193.87,25.74,287.94,41.82c134.04,22.91,272.64,46.6,412.9,49.32c0.83,0.02,1.49,0.7,1.47,1.53
					c-0.02,0.83-0.73,1.53-1.53,1.47c-140.48-2.73-279.2-26.44-413.34-49.36c-187.79-32.1-381.97-65.28-581.15-40.27
					c-118.37,14.87-236.32,42.89-350.39,69.99c-154.22,36.64-313.69,74.53-476.13,80.33
					C2160.58,2408.81,2141.94,2409.13,2123.03,2409.13z"/>
			</g>
		</g>
		<g>
			<g>
				<path d="M2118.62,2352.09c-153.92,0-309.97-30.39-461.46-59.9c-22.29-4.34-45.35-8.83-67.83-13.11
					c-57.63-10.96-116.18-22.58-172.8-33.8c-156.77-31.09-318.88-63.24-479.82-85.27c-191.51-26.21-336.17-17.41-483.69,29.42
					c-26.72,8.48-53.43,17.34-79.27,25.9c-123.87,41.06-240.87,79.83-373.69,85.71c-0.82,0.03-1.53-0.6-1.56-1.43
					s0.6-1.53,1.43-1.57c132.41-5.86,249.22-44.58,372.88-85.56c25.84-8.57,52.57-17.42,79.3-25.91
					c147.98-46.98,293.02-55.81,485.01-29.54c161.03,22.04,323.18,54.2,480,85.3c56.61,11.23,115.16,22.84,172.78,33.8
					c22.49,4.28,45.55,8.77,67.84,13.11c170.35,33.17,346.49,67.48,518.65,58.34c157.88-8.38,314.58-41.02,466.12-72.58
					c111.38-23.2,226.56-47.19,341.47-61.41c91.77-11.36,190.22-11.99,300.99-1.94c98.79,8.97,198.25,25.44,294.43,41.37
					c136.45,22.59,277.54,45.96,420.63,48.72c0.83,0.02,1.49,0.7,1.47,1.53c-0.01,0.83-0.73,1.48-1.53,1.47
					c-143.31-2.76-284.51-26.15-421.06-48.76c-191.97-31.79-390.48-64.66-594.56-39.41c-114.79,14.21-229.9,38.18-341.22,61.37
					c-151.65,31.58-308.46,64.24-466.58,72.64C2157.29,2351.61,2137.97,2352.09,2118.62,2352.09z"/>
			</g>
		</g>
		<g>
			<g>
				<path d="M4000,2272.02c-0.01,0-0.02,0-0.03,0c-156.59-3.04-311.29-27.6-460.89-51.36c-199.23-31.64-405.23-64.35-616.03-45.81
					c-107.46,9.45-216.16,24.11-321.28,38.29c-144.47,19.49-293.85,39.64-442.21,46.56c-26.67,1.24-53.45,1.83-80.27,1.83
					c-219.85,0-443.73-39.31-661.05-77.46c-130.94-22.99-266.34-46.76-397.64-61.2c-185.95-20.44-341.37-11.38-503.94,29.37
					c-32.06,8.04-64.44,16.55-95.76,24.78c-135.65,35.65-275.92,72.51-420.84,78.67c-0.82,0.03-1.53-0.61-1.56-1.44
					c-0.04-0.83,0.61-1.53,1.44-1.56c144.6-6.15,284.71-42.96,420.21-78.57c31.33-8.23,63.73-16.75,95.8-24.79
					c162.93-40.85,318.68-49.93,504.99-29.45c131.39,14.45,266.84,38.23,397.83,61.22c243.67,42.78,495.63,87.01,740.66,75.59
					c148.23-6.91,297.55-27.05,441.95-46.54c105.15-14.19,213.89-28.85,321.42-38.31c211.16-18.57,417.36,14.17,616.76,45.84
					c149.5,23.74,304.1,48.29,460.48,51.33c0.83,0.02,1.49,0.7,1.47,1.53C4001.48,2271.37,4000.82,2272.02,4000,2272.02z"/>
			</g>
		</g>
		<g>
			<g>
				<path d="M4000,2246.69c-0.01,0-0.02,0-0.03,0c-167-3.7-333.88-32.18-495.26-59.72c-52.93-9.03-107.66-18.37-161.59-26.7
					c-152.31-23.52-309.3-31.85-509.04-27.03c-188.25,4.55-379.67,8.7-564.78,12.71c-45.64,0.99-91.27,1.98-136.91,2.97
					c-217.16,4.72-438.47-15.18-652.49-34.44c-113.54-10.22-230.96-20.78-346.03-27.5c-185.58-10.82-353.99-0.59-529.99,32.2
					c-41.67,7.76-83.94,16.13-124.83,24.22c-155.76,30.82-316.82,62.69-479,68.15c-0.84,0.03-1.52-0.62-1.55-1.45
					c-0.03-0.83,0.62-1.52,1.45-1.55c161.94-5.45,322.88-37.3,478.52-68.09c40.89-8.09,83.18-16.46,124.86-24.22
					c176.25-32.84,344.89-43.09,530.72-32.25c115.12,6.71,232.55,17.28,346.12,27.5c213.94,19.25,435.17,39.17,652.16,34.43
					c45.64-1,91.27-1.98,136.91-2.97c185.11-4.01,376.53-8.15,564.77-12.7c199.91-4.83,357.07,3.51,509.57,27.06
					c53.96,8.33,108.7,17.67,161.64,26.71c161.28,27.52,328.05,55.98,494.82,59.68c0.83,0.02,1.48,0.71,1.47,1.53
					C4001.48,2246.04,4000.81,2246.69,4000,2246.69z"/>
			</g>
		</g>
		<g>
			<g>
				<path d="M4000,2225.92c-0.01,0-0.03,0-0.04,0c-184.93-4.81-370.44-35.1-549.84-64.39c-61.06-9.97-124.2-20.28-186.35-29.42
					c-128.97-18.98-258.97-25.44-384.7-31.69c-48.64-2.42-98.93-4.92-148.79-8.11c-91.95-5.89-184.39-18.37-273.78-30.43
					c-116.3-15.7-236.57-31.93-356.83-33.77c-173.98-2.67-350.64,5.08-521.48,12.58c-103.55,4.54-210.63,9.24-316.03,11.57
					c-167.87,3.71-363.35,9.91-558.99,36.59c-51.97,7.09-104.8,14.84-155.89,22.33c-178.7,26.21-363.48,53.31-547.26,57.48
					c-0.81,0.04-1.52-0.64-1.53-1.47c-0.02-0.83,0.64-1.51,1.47-1.53c183.59-4.16,368.28-31.25,546.89-57.45
					c51.1-7.5,103.93-15.24,155.92-22.34c195.8-26.71,391.38-32.91,559.33-36.62c105.36-2.33,212.42-7.03,315.96-11.57
					c170.88-7.5,347.59-15.25,521.66-12.58c120.44,1.85,240.79,18.09,357.18,33.8c89.34,12.06,181.72,24.53,273.57,30.41
					c49.83,3.19,100.12,5.69,148.74,8.11c125.8,6.25,255.88,12.72,384.99,31.72c62.17,9.15,125.32,19.46,186.39,29.43
					c179.3,29.28,364.71,59.55,549.44,64.35c0.83,0.02,1.48,0.71,1.46,1.54C4001.48,2225.27,4000.81,2225.92,4000,2225.92z"/>
			</g>
		</g>
		<g>
			<g>
				<path d="M4000,2206.85c-0.02,0-0.03,0-0.05,0c-203.37-6.01-407.9-38.16-605.69-69.25c-69.24-10.88-140.84-22.14-211.26-32.09
					c-85.28-12.05-173.02-17.69-257.88-23.14c-99.14-6.37-201.65-12.96-300.59-29.82c-83.96-14.31-163.95-41.87-241.31-68.53
					c-100.5-34.63-204.42-70.44-317.13-76.91c-147.27-8.45-288.74,26.15-425.55,59.61c-80.99,19.81-164.74,40.29-249.37,51.88
					c-109.19,14.95-221.86,20.03-330.83,24.95c-84.57,3.82-172.02,7.76-257.24,16.29c-62.24,6.23-125.54,13.13-186.76,19.81
					c-201.65,21.99-410.17,44.72-616.34,47.4c-0.01,0-0.01,0-0.02,0c-0.82,0-1.49-0.66-1.5-1.48c-0.01-0.83,0.65-1.51,1.48-1.52
					c206.03-2.68,414.47-25.4,616.06-47.38c61.22-6.68,124.53-13.58,186.78-19.81c85.31-8.54,172.8-12.49,257.41-16.3
					c108.9-4.91,221.5-9.99,330.56-24.92c84.48-11.56,168.15-32.03,249.06-51.82c137.02-33.51,278.72-68.17,426.43-59.69
					c113.11,6.49,217.24,42.37,317.93,77.07c77.24,26.62,157.12,54.14,240.83,68.41c98.79,16.83,201.22,23.42,300.28,29.78
					c84.91,5.46,172.71,11.1,258.1,23.17c70.45,9.96,142.06,21.21,211.31,32.1c197.7,31.07,402.13,63.21,605.31,69.21
					c0.83,0.02,1.48,0.72,1.45,1.54C4001.48,2206.21,4000.81,2206.85,4000,2206.85z"/>
			</g>
		</g>
		<g>
			<g>
				<path d="M4000,2186.64c-0.02,0-0.03,0-0.05,0c-219.79-7.04-441.22-40.86-655.35-73.56c-76.75-11.72-156.12-23.84-234.15-34.54
					c-118.06-16.17-243.75-32.51-368.19-38.97c-7.72-0.4-15.43-0.78-23.12-1.15c-65.33-3.18-127.03-6.18-189.42-23.89
					c-78.9-22.41-145.89-63.53-210.68-103.31c-83.99-51.56-170.85-104.88-282.7-115.41c-106.9-10.06-213.67,14.64-308.77,71.44
					c-18.29,10.92-36.26,22.48-53.64,33.67c-53.77,34.6-104.57,67.27-167.35,85.01c-66.23,18.71-131.83,20.1-201.27,21.56
					c-4.92,0.1-9.85,0.21-14.79,0.32c-131.13,2.95-264.24,12.91-392.96,22.55l-5.35,0.4c-71.72,5.37-144.68,11.4-215.24,17.23
					c-221.69,18.32-450.93,37.25-676.96,38.76c0,0-0.01,0-0.01,0c-0.82,0-1.49-0.67-1.5-1.49c-0.01-0.83,0.66-1.5,1.49-1.51
					c225.92-1.51,455.1-20.44,676.73-38.75c70.56-5.83,143.53-11.86,215.26-17.23l5.35-0.4c128.76-9.64,261.91-19.62,393.12-22.56
					c4.94-0.11,9.87-0.22,14.79-0.32c69.25-1.46,134.66-2.85,200.52-21.45c62.35-17.61,112.96-50.17,166.54-84.65
					c17.4-11.2,35.4-22.77,53.73-33.72c95.65-57.13,203.05-81.97,310.59-71.85c112.55,10.59,199.71,64.1,283.99,115.84
					c64.61,39.66,131.42,80.68,209.93,102.98c62.06,17.62,123.6,20.62,188.75,23.78c7.7,0.38,15.41,0.75,23.13,1.15
					c124.56,6.47,250.31,22.81,368.44,38.99c78.05,10.69,157.43,22.82,234.2,34.54c214.05,32.69,435.38,66.5,655,73.53
					c0.83,0.03,1.48,0.72,1.45,1.55C4001.47,2186,4000.81,2186.64,4000,2186.64z"/>
			</g>
		</g>
		<g>
			<g>
				<path d="M4000,2162.43c-0.02,0-0.03,0-0.05,0c-231.7-7.59-465.42-42.67-691.45-76.6c-82.87-12.44-168.56-25.3-252.76-36.59
					c-136.77-18.34-260.34-34.07-387.66-40.78c-8.08-0.43-16.14-0.81-24.2-1.19c-64.3-3.06-125.04-5.96-185.15-28.49
					c-72.1-27.02-120.11-75.84-170.95-127.52c-9.1-9.25-18.51-18.82-28.07-28.26c-71.24-70.39-148.99-108.18-244.67-118.93
					c-79.88-8.97-191.4-0.18-269.06,92.63c-13.48,16.12-25.38,32.8-36.88,48.93c-30.95,43.41-60.19,84.41-115.14,108.52
					c-57.21,25.1-120.6,25.68-181.91,26.24c-8.95,0.08-18.2,0.17-27.21,0.33c-137.9,2.49-277.97,10.76-413.44,18.76l-12.43,0.73
					c-77.98,4.6-157.31,9.78-234.03,14.79c-237.51,15.51-483.1,31.55-724.94,32.8c0,0-0.01,0-0.01,0c-0.82,0-1.49-0.67-1.5-1.49
					c0-0.83,0.66-1.5,1.49-1.51c241.75-1.25,487.3-17.28,724.76-32.79c76.72-5.01,156.05-10.19,234.05-14.79l12.43-0.73
					c135.49-8,275.6-16.27,413.56-18.77c9.02-0.16,18.28-0.25,27.23-0.33c61-0.56,124.08-1.14,180.73-25.99
					c54.2-23.78,83.2-64.45,113.91-107.51c11.54-16.18,23.47-32.91,37.02-49.11c32.4-38.73,73.68-66.22,122.68-81.7
					c44.49-14.06,94.62-18.09,149.01-11.98c96.39,10.83,174.7,48.88,246.45,119.77c9.58,9.46,18.99,19.03,28.1,28.29
					c50.59,51.44,98.38,100.02,169.86,126.81c59.67,22.37,120.18,25.25,184.24,28.3c8.06,0.38,16.13,0.77,24.21,1.19
					c127.44,6.72,251.07,22.46,387.9,40.81c84.23,11.3,169.93,24.16,252.81,36.6c225.94,33.92,459.58,68.99,691.1,76.57
					c0.83,0.03,1.48,0.72,1.45,1.55C4001.47,2161.79,4000.81,2162.43,4000,2162.43z"/>
			</g>
		</g>
		<g>
			<g>
				<path d="M4000,2131.38c-0.02,0-0.03,0-0.05,0c-236.6-7.33-475.57-43.07-706.68-77.63c-86.82-12.98-176.6-26.41-264.77-38.1
					l-14.66-1.94c-124.46-16.52-253.15-33.6-380.42-39.53c-11.32-0.53-22.84-0.92-33.98-1.29c-58.39-1.97-118.76-4-175-27.03
					c-71.82-29.4-112.74-83.25-156.06-140.25c-8.54-11.23-17.36-22.85-26.47-34.32c-63.33-79.78-135.81-119.73-235.02-129.54
					c-132.02-13.05-215.89,20.08-256.41,101.28c-9.54,19.11-16.56,38.8-23.35,57.84c-17.34,48.61-33.71,94.52-88.25,122.39
					c-50.96,26.04-111.51,25.73-170.07,25.42c-13.56-0.07-26.38-0.14-39.04,0.12c-136.07,2.79-274.33,9.76-408.03,16.5l-29.8,1.5
					c-83.77,4.21-168.98,8.93-251.38,13.5c-242.65,13.45-493.57,27.35-740.55,29.95c-0.01,0-0.01,0-0.02,0
					c-0.82,0-1.49-0.66-1.5-1.48c-0.01-0.83,0.66-1.51,1.48-1.52c246.91-2.6,497.79-16.5,740.41-29.94
					c82.41-4.57,167.62-9.29,251.4-13.5l29.8-1.5c133.73-6.74,272.01-13.7,408.12-16.5c12.71-0.26,25.54-0.19,39.12-0.12
					c58.2,0.3,118.38,0.62,168.68-25.09c53.48-27.33,69.66-72.7,86.79-120.73c6.82-19.12,13.87-38.9,23.49-58.17
					c22.76-45.6,59.77-76.79,110.01-92.7c40.45-12.81,89.31-16.16,149.38-10.22c50.57,5,94.09,17.96,133.06,39.63
					c38.26,21.27,72.28,51.05,104.01,91.03c9.13,11.5,17.96,23.13,26.51,34.37c43.07,56.67,83.74,110.2,154.81,139.29
					c55.74,22.82,115.84,24.85,173.96,26.81c11.15,0.38,22.68,0.76,34.02,1.29c127.39,5.94,256.15,23.03,380.67,39.55l14.66,1.94
					c88.19,11.69,177.98,25.12,264.82,38.11c231.02,34.55,469.9,70.28,706.33,77.6c0.83,0.03,1.48,0.72,1.45,1.55
					C4001.47,2130.74,4000.81,2131.38,4000,2131.38z"/>
			</g>
		</g>
		<g>
			<g>
				<path d="M4000,2118.04c-0.05,0-0.09,0-0.14-0.01c-218.87-20.31-439.94-53.97-653.74-86.52
					c-104.03-15.84-211.6-32.22-317.52-46.84c-9.08-1.25-18.17-2.51-27.25-3.77c-119.56-16.56-243.19-33.69-365.34-41.24
					c-13.35-0.83-26.97-1.41-40.15-1.97c-56.17-2.4-114.25-4.89-168.11-26.83c-72.44-29.51-114.35-84.08-158.72-141.85
					c-8.63-11.23-17.55-22.85-26.71-34.29c-63.64-79.42-138.65-120.69-236.05-129.87c-133.26-12.56-214.93,20.14-257.01,102.92
					c-9.77,19.21-17.06,39.3-24.12,58.72c-18.03,49.65-35.07,96.55-89.8,124.1c-49.63,24.99-108.58,23.85-165.6,22.74
					c-14.55-0.28-28.29-0.55-41.8-0.38c-139.26,1.73-280.78,8.74-417.64,15.51l-19.58,0.97c-92.16,4.56-185.88,9.78-276.52,14.84
					c-234,13.05-475.98,26.55-714.17,29.79c-0.81,0-1.51-0.65-1.52-1.48s0.65-1.51,1.48-1.52c238.13-3.24,480.07-16.74,714.05-29.79
					c90.64-5.06,184.37-10.28,276.54-14.84l19.58-0.97c136.89-6.78,278.44-13.79,417.75-15.52c13.56-0.17,27.32,0.1,41.9,0.38
					c56.65,1.1,115.22,2.24,164.19-22.42c53.67-27.02,70.5-73.37,88.33-122.45c7.09-19.51,14.41-39.68,24.27-59.06
					c12.22-24.04,28.21-44.26,47.51-60.1c17.71-14.53,38.76-25.82,62.58-33.55c40.18-13.05,89.21-16.61,149.88-10.89
					c50.55,4.76,94.23,17.74,133.54,39.67c38.2,21.31,72.4,51.18,104.56,91.31c9.18,11.46,18.12,23.09,26.75,34.33
					c44.12,57.44,85.79,111.69,157.47,140.9c53.38,21.75,111.2,24.22,167.11,26.61c13.19,0.56,26.83,1.15,40.21,1.97
					c122.26,7.56,245.95,24.69,365.56,41.26c9.09,1.26,18.17,2.52,27.25,3.77c105.94,14.63,213.52,31.01,317.56,46.85
					c213.75,32.54,434.78,66.2,653.56,86.5c0.83,0.08,1.43,0.81,1.35,1.63C4001.42,2117.46,4000.77,2118.04,4000,2118.04z"/>
			</g>
		</g>
		<g>
			<g>
				<path d="M4000,2103.09c-0.08,0-0.15,0-0.23-0.02c-117.31-17.93-236.48-36.84-351.72-55.13
					c-201.06-31.91-408.97-64.91-613.99-93.78c-10.83-1.52-21.66-3.06-32.5-4.59c-116.39-16.45-236.74-33.46-355.56-42.5
					c-14.42-1.1-29.16-1.89-43.41-2.65c-55-2.95-111.87-5.99-164.54-27.27c-73.23-29.58-117.37-84.26-164.1-142.15
					c-9.18-11.37-18.67-23.13-28.38-34.67c-67.16-79.82-143.39-121.21-239.89-130.28c-130.35-12.24-212.61,21.34-258.9,105.68
					c-10.53,19.18-18.77,39.56-26.74,59.26c-20.5,50.69-39.87,98.57-94.89,125.86c-49.22,24.41-107.14,22.48-163.16,20.61
					c-14.56-0.49-28.31-0.94-41.86-0.94c-0.05,0-0.1,0-0.15,0c-142.31,0.04-286.98,6.98-426.88,13.7l-8.11,0.39
					c-99.63,4.78-200.94,10.47-298.92,15.98c-224.79,12.62-457.22,25.68-686.06,28.74c-0.81,0.02-1.51-0.65-1.52-1.48
					c-0.01-0.83,0.65-1.51,1.48-1.52c228.77-3.06,461.17-16.11,685.93-28.74c97.98-5.5,199.3-11.19,298.94-15.98l8.11-0.39
					c139.94-6.72,284.64-13.67,427.03-13.71c0.05,0,0.1,0,0.15,0c13.6,0,27.38,0.46,41.96,0.95c55.65,1.86,113.18,3.78,161.72-20.3
					c54-26.78,73.16-74.15,93.44-124.3c8-19.78,16.28-40.24,26.89-59.58c25.26-46.03,62.71-77.87,111.31-94.66
					c40.9-14.12,90.13-18.23,150.51-12.56c50.52,4.75,94.65,17.92,134.92,40.29c38.37,21.31,73.37,51.09,106.99,91.05
					c9.73,11.56,19.23,23.33,28.42,34.71c46.48,57.58,90.38,111.96,162.89,141.25c52.21,21.09,108.83,24.13,163.58,27.06
					c14.27,0.76,29.03,1.55,43.48,2.65c118.92,9.04,239.32,26.06,355.75,42.52c10.84,1.53,21.67,3.06,32.49,4.59
					c205.05,28.87,412.97,61.87,614.04,93.78c115.24,18.29,234.4,37.2,351.71,55.13c0.82,0.12,1.38,0.89,1.26,1.71
					C4001.37,2102.56,4000.73,2103.09,4000,2103.09z"/>
			</g>
		</g>
		<g>
			<g>
				<path d="M4000,2083.42c-0.1,0-0.2-0.01-0.3-0.03c-282.78-57.51-586.6-108.34-956.15-159.96c-11.62-1.62-23.25-3.25-34.88-4.89
					c-113.57-15.93-231.01-32.4-346.88-42.3c-15.02-1.28-30.38-2.23-45.24-3.15c-54.5-3.36-110.85-6.83-163.11-27.63
					c-80.21-31.93-134.44-90.92-186.88-147.98c-70.48-76.68-137.05-149.1-261.17-160.69c-127.91-11.94-211.45,22.77-262.9,109.23
					c-11.46,19.26-20.83,40-29.89,60.07c-23.48,51.96-45.65,101.04-101.47,128.27c-49.26,24.03-106.47,21.31-161.79,18.69
					c-14.44-0.69-28.09-1.33-41.59-1.52c-144.34-1.96-290.28,4.68-431.41,11.09c-105.29,4.79-212.35,10.74-315.89,16.5
					c-216.38,12.04-440.13,24.49-660.42,26.96c-0.84-0.03-1.51-0.66-1.52-1.48c-0.01-0.83,0.65-1.51,1.48-1.52
					c220.22-2.47,443.94-14.92,660.29-26.96c103.54-5.76,210.62-11.72,315.92-16.51c141.18-6.42,287.16-13.06,431.59-11.1
					c13.56,0.18,27.23,0.83,41.69,1.52c54.94,2.61,111.76,5.31,160.33-18.39c54.85-26.75,76.81-75.36,100.05-126.81
					c9.1-20.14,18.51-40.96,30.05-60.36c27.88-46.86,65.04-78.31,113.59-96.13c42.04-15.43,91.82-20.19,152.16-14.56
					c56.25,5.25,106.16,23.88,152.58,56.95c41.41,29.5,76.55,67.73,110.53,104.7c52.22,56.81,106.21,115.55,185.78,147.22
					c51.82,20.63,107.93,24.08,162.19,27.43c14.88,0.92,30.26,1.86,45.31,3.15c115.95,9.91,233.43,26.39,347.04,42.32
					c11.63,1.63,23.26,3.26,34.88,4.89c369.61,51.63,673.49,102.47,956.33,160c0.81,0.17,1.34,0.96,1.17,1.77
					C4001.33,2082.93,4000.7,2083.42,4000,2083.42z"/>
			</g>
		</g>
		<g>
			<g>
				<path d="M4000,2059.61c-0.12,0-0.24-0.01-0.36-0.04c-312.97-77.18-638.2-125.85-943.03-166.95c-11.2-1.51-22.41-3.03-33.62-4.54
					c-111.44-15.07-226.67-30.66-340.28-40.97c-15.23-1.38-30.8-2.43-45.86-3.44c-54.58-3.67-111.02-7.47-163.53-27.96
					c-81.93-31.97-139.7-91.23-195.57-148.54c-75.45-77.39-146.71-150.49-272.4-162.13c-126.32-11.7-214.26,25.4-268.81,113.42
					c-11.31,18.25-21.3,38.08-30.96,57.26c-26.58,52.76-54.07,107.32-112.04,135.09c-49.71,23.81-106.46,20.3-161.34,16.92
					c-14.09-0.87-27.4-1.69-40.67-2.08c-145.37-4.2-294.76,2.06-426.58,7.58c-109.29,4.58-220.41,10.62-327.88,16.46
					c-208.73,11.34-424.56,23.07-637.06,24.66c0,0-0.01,0-0.01,0c-0.82,0-1.49-0.66-1.5-1.49c-0.01-0.83,0.66-1.5,1.49-1.51
					c212.43-1.59,428.22-13.32,636.92-24.65c107.47-5.84,218.61-11.88,327.92-16.46c131.86-5.52,281.32-11.78,426.79-7.58
					c13.32,0.38,27.27,1.25,40.77,2.08c54.5,3.37,110.85,6.85,159.86-16.63c57.05-27.32,84.3-81.42,110.66-133.73
					c9.69-19.24,19.71-39.13,31.09-57.49c28.89-46.61,68.18-79.66,116.79-98.23c43.25-16.52,95.35-22.11,154.85-16.6
					c56.93,5.27,108.26,24.05,156.93,57.42c43.41,29.76,81,68.32,117.34,105.6c55.65,57.08,113.19,116.1,194.51,147.83
					c52.08,20.32,108.29,24.1,162.64,27.76c15.07,1.01,30.66,2.06,45.93,3.45c113.67,10.31,228.94,25.9,340.42,40.98
					c11.21,1.52,22.41,3.03,33.62,4.54c304.92,41.11,630.24,89.79,943.35,167.01c0.8,0.2,1.29,1.01,1.1,1.82
					C4001.29,2059.16,4000.67,2059.61,4000,2059.61z"/>
			</g>
		</g>
		<g>
			<g>
				<path d="M4000,2032.27c-0.14,0-0.27-0.02-0.41-0.06c-311.71-88.52-641.85-134.31-926.83-170.28l-26.46-3.34
					c-110.8-14.01-225.36-28.49-338.24-38.89c-14.92-1.37-30.12-2.46-44.82-3.51c-55.32-3.96-112.53-8.05-166.16-28.29
					c-84.49-31.88-146.39-91.61-206.25-149.38c-80.96-78.13-157.43-151.93-285.31-163.65c-124.66-11.43-215.11,27.22-276.5,118.16
					c-12.52,18.54-23.89,38.89-34.89,58.56c-30.32,54.23-61.67,110.3-121.47,138.37c-50.53,23.72-107.05,19.41-161.7,15.25
					c-12.98-0.99-26.41-2.01-39.31-2.6c-145.63-6.64-298.09-0.92-420.59,3.66c-111.92,4.19-225.72,10.15-335.77,15.9
					c-201.6,10.55-410.06,21.45-615.3,21.97c0,0,0,0,0,0c-0.83,0-1.5-0.67-1.5-1.5s0.67-1.5,1.5-1.5
					c205.16-0.52,413.58-11.42,615.15-21.97c110.06-5.76,223.87-11.71,335.81-15.91c122.55-4.59,275.08-10.3,420.84-3.66
					c12.95,0.59,26.4,1.62,39.4,2.61c54.26,4.14,110.38,8.42,160.2-14.97c58.93-27.67,90.04-83.31,120.13-137.12
					c11.03-19.73,22.44-40.13,35.03-58.78c31.78-47.08,72.47-80.85,120.95-100.39c45.07-18.16,98.34-24.58,158.32-19.08
					c57.88,5.31,110.93,24.26,162.16,57.95c45.69,30.04,85.99,68.93,124.96,106.53c59.64,57.56,121.32,117.07,205.22,148.73
					c53.22,20.08,110.21,24.16,165.32,28.1c14.71,1.05,29.93,2.14,44.88,3.52c112.92,10.4,227.52,24.89,338.34,38.9l26.45,3.34
					c139.8,17.64,304.61,39.48,466.97,67.69c171.09,29.72,321.66,63.31,460.3,102.68c0.8,0.23,1.26,1.05,1.03,1.85
					C4001.26,2031.84,4000.65,2032.27,4000,2032.27z"/>
			</g>
		</g>
		<g>
			<g>
				<path d="M4000,2001.98c-0.15,0-0.3-0.02-0.45-0.07c-301.59-95.61-621.43-137.46-897.55-169.18
					c-129.04-14.82-255.43-29.08-382.98-40.63c-11.97-1.08-24.1-2.02-35.82-2.93c-58.03-4.5-112.84-8.74-167.25-29.89
					c-83.83-32.58-148.2-91.28-210.45-148.06c-86.73-79.1-168.64-153.8-299.19-165.29c-122.02-10.73-214.93,28.82-284.03,120.93
					c-14.92,19.88-28.54,41.93-41.72,63.26c-33,53.41-67.13,108.64-125.79,138.02c-52.57,26.33-106.48,21.97-163.54,17.35
					c-7.8-0.63-15.86-1.28-23.81-1.84c-147.77-10.33-294.46-6.72-444.24-1.74c-110.07,3.66-221.98,9.23-330.21,14.63
					c-194.29,9.68-395.18,19.7-592.97,18.99c-0.83,0-1.5-0.68-1.49-1.51c0-0.83,0.67-1.49,1.5-1.49c0,0,0,0,0.01,0
					c197.69,0.7,398.56-9.31,592.81-18.99c108.24-5.39,220.17-10.97,330.26-14.63c149.87-4.98,296.63-8.6,444.55,1.75
					c7.97,0.56,16.04,1.21,23.84,1.84c56.64,4.58,110.14,8.91,161.96-17.05c57.89-28.99,91.79-83.86,124.58-136.91
					c13.21-21.38,26.87-43.49,41.87-63.48c35.19-46.9,77.47-80.84,125.66-100.87c46.67-19.39,100.85-26.54,161.03-21.25
					c59.06,5.19,114,24.26,167.96,58.3c48.12,30.35,91.26,69.7,132.99,107.76c62.05,56.59,126.21,115.1,209.52,147.48
					c54,20.98,108.6,25.21,166.4,29.69c11.74,0.91,23.87,1.85,35.86,2.94c127.59,11.55,254,25.81,383.05,40.64
					c276.25,31.73,596.26,73.6,898.11,169.3c0.79,0.25,1.23,1.09,0.98,1.88C4001.23,2001.57,4000.64,2001.98,4000,2001.98z"/>
			</g>
		</g>
		<g>
			<g>
				<path d="M4000,1969.34c-0.16,0-0.33-0.03-0.49-0.08c-269.01-93.09-545.14-133.95-876.99-166.66
					c-122.19-12.05-246.99-23.59-370.92-34.32c-10.71-0.93-21.56-1.76-32.04-2.57c-60.34-4.66-117.34-9.07-174.1-30.48
					c-86.78-32.73-155.81-91.81-222.57-148.95c-93.58-80.1-181.97-155.75-316.08-167.3c-121.04-10.43-217.37,30.85-294.49,126.2
					c-16.4,20.28-31.71,42.88-46.52,64.73c-37.28,55.02-75.82,111.91-137.34,141.93c-54.6,26.65-109.28,21.39-167.18,15.82
					c-6.6-0.64-13.43-1.29-20.19-1.89c-144.69-12.84-288.73-10.46-435.86-6.62c-113.65,2.96-229.19,8.38-340.93,13.63
					c-184.9,8.67-376.1,17.65-564.33,15.75c-0.83-0.01-1.49-0.69-1.48-1.52c0.01-0.83,0.71-1.53,1.52-1.48
					c188.13,1.9,379.3-7.07,564.16-15.74c111.75-5.24,227.31-10.66,340.99-13.63c147.22-3.84,291.36-6.22,436.2,6.63
					c6.77,0.6,13.6,1.26,20.21,1.89c57.46,5.53,111.73,10.75,165.57-15.53c60.8-29.67,99.12-86.23,136.17-140.92
					c14.84-21.91,30.19-44.56,46.67-64.94c77.79-96.18,174.97-137.82,297.08-127.3c60.63,5.22,117.94,24.51,175.21,58.97
					c51.06,30.72,97.58,70.54,142.57,109.05c66.56,56.97,135.39,115.88,221.67,148.42c56.37,21.26,113.15,25.65,173.28,30.29
					c10.5,0.81,21.35,1.65,32.07,2.58c123.94,10.73,248.75,22.27,370.95,34.32c123.14,12.14,284.89,29.65,444.01,57.59
					c161.19,28.3,303.05,64.02,433.66,109.22c0.78,0.27,1.2,1.12,0.93,1.91C4001.2,1968.95,4000.62,1969.34,4000,1969.34z"/>
			</g>
		</g>
		<g>
			<g>
				<path d="M4000,1934.94c-0.17,0-0.35-0.03-0.52-0.09c-283.95-105.62-578.62-140.17-854.76-161.76
					c-50.9-3.98-103.66-5.45-159.52-7c-139.99-3.89-284.75-7.92-408.13-53.05c-90.03-32.93-163.93-92.41-235.39-149.93
					c-96.37-77.57-196.02-157.77-334.23-169.43c-120.3-10.15-220.45,32.89-306.17,131.58c-17.97,20.69-35.06,43.83-51.59,66.21
					c-41.83,56.65-85.09,115.22-149.89,145.98c-57.04,27.07-112.84,20.79-171.9,14.13c-5.24-0.59-10.52-1.18-15.83-1.76
					c-144.35-15.64-289.87-14.31-426.56-11.6c-113.77,2.25-229.42,7.3-341.26,12.18c-178.34,7.79-362.75,15.84-544.27,12.75
					c-0.83-0.01-1.49-0.7-1.47-1.53c0.01-0.82,0.68-1.47,1.5-1.47c0.01,0,0.02,0,0.03,0c181.43,3.09,365.79-4.96,544.08-12.75
					c111.86-4.88,227.53-9.94,341.33-12.19c136.78-2.71,282.42-4.04,426.94,11.62c5.32,0.58,10.59,1.17,15.84,1.76
					c58.63,6.6,114.01,12.84,170.28-13.86c64.12-30.43,107.15-88.7,148.76-145.05c16.56-22.42,33.68-45.61,51.74-66.4
					c42.69-49.14,87.62-83.78,137.38-105.9c52.35-23.27,108.38-32.01,171.31-26.7c62.45,5.27,122.36,24.79,183.15,59.69
					c54.2,31.11,104.28,71.42,152.71,110.39c71.27,57.37,144.98,116.69,234.54,149.45c122.92,44.96,267.43,48.98,407.18,52.87
					c55.9,1.55,108.7,3.02,159.67,7.01c175.71,13.74,309.5,29.49,433.78,51.06c156.05,27.08,294.02,63.35,421.79,110.88
					c0.78,0.29,1.17,1.15,0.88,1.93C4001.18,1934.56,4000.61,1934.94,4000,1934.94z"/>
			</g>
		</g>
		<g>
			<g>
				<path d="M4000,1899.37c-0.18,0-0.37-0.03-0.55-0.11c-289.22-114.48-595.86-143.25-857.67-156.3
					c-42.83-2.13-86.65-2.67-133.05-3.24c-132.91-1.62-270.35-3.3-389.52-43.93c-96.83-33.01-177.97-94.16-256.43-153.3
					c-104.04-78.42-211.63-159.51-354.92-172.14c-119.23-10.51-222.6,33.15-316,133.49c-20.12,21.61-39.5,45.93-58.24,69.45
					c-45.38,56.93-92.29,115.8-157.62,148.48c-62.25,31.13-122.07,23.28-185.41,14.96c-6.94-0.91-14.12-1.85-21.29-2.75
					c-126.76-15.76-253.7-16.2-372.87-15.3c-124.27,0.94-250.6,6.02-372.76,10.93c-171.61,6.9-349.06,14.04-523.71,9.81
					c-0.83-0.02-1.48-0.71-1.46-1.54c0.02-0.83,0.68-1.49,1.54-1.46c174.55,4.23,351.95-2.91,523.52-9.81
					c122.19-4.92,248.54-10,372.86-10.94c119.26-0.9,246.32-0.46,373.26,15.32c7.19,0.89,14.37,1.84,21.31,2.75
					c65.6,8.62,122.25,16.06,183.68-14.67c64.73-32.38,111.44-90.99,156.61-147.67c18.78-23.56,38.2-47.93,58.39-69.62
					c94.07-101.06,198.24-145.03,318.46-134.44c64.7,5.7,127.65,25.68,192.43,61.08c57.76,31.55,111.78,72.27,164.03,111.65
					c78.27,58.99,159.21,120,255.59,152.85c118.72,40.47,255.91,42.15,388.59,43.77c46.42,0.57,90.27,1.1,133.16,3.24
					c172.98,8.62,311.57,22.2,436.17,42.74c155.71,25.67,293.89,62.88,422.46,113.77c0.77,0.3,1.15,1.18,0.84,1.95
					C4001.16,1899.01,4000.6,1899.37,4000,1899.37z"/>
			</g>
		</g>
		<g>
			<g>
				<path d="M4000,1863.22c-0.19,0-0.39-0.04-0.58-0.12c-289.03-120.59-582.89-142.02-832.23-147.08
					c-37.54-0.76-75.47-0.46-115.63-0.14c-135.08,1.07-274.75,2.18-397.96-38.64c-100.63-33.34-186.96-94.91-270.45-154.45
					c-111.26-79.35-226.3-161.4-374.5-174.35c-118.78-10.38-226.52,34.96-329.39,138.59c-21.88,22.04-43.19,46.82-63.81,70.79
					c-50.32,58.5-102.36,118.99-171.75,152.54c-65.32,31.58-123.6,22.91-191.1,12.87c-5.48-0.82-11.02-1.64-16.63-2.45
					c-125.56-18.18-253.34-19.67-363.23-19.68c-123.35,0.02-248.74,4.65-370,9.14c-164.77,6.09-335.14,12.4-502.8,7.19
					c-0.83-0.03-1.48-0.72-1.45-1.55c0.03-0.83,0.72-1.47,1.55-1.45c167.55,5.2,337.88-1.1,502.59-7.19
					c121.29-4.49,246.7-9.12,370.11-9.14c0.51,0,1.02,0,1.53,0c109.66,0,236.95,1.58,362.13,19.71c5.61,0.81,11.16,1.64,16.64,2.45
					c67,9.97,124.87,18.58,189.35-12.6c68.83-33.28,120.66-93.53,170.78-151.8c20.65-24.01,42-48.83,63.96-70.94
					c49.55-49.92,98.65-85.51,150.09-108.79c58.02-26.26,117.44-36.29,181.69-30.68c66.88,5.84,132.73,26.1,201.29,61.94
					c61.12,31.95,118.86,73.13,174.7,112.96c83.31,59.42,169.45,120.85,269.65,154.05c122.74,40.66,262.16,39.55,396.99,38.49
					c40.18-0.32,78.13-0.62,115.71,0.14c165.55,3.36,300.3,14.1,424.08,33.81c149.31,23.77,283.18,60.9,409.24,113.5
					c0.76,0.32,1.13,1.2,0.81,1.96C4001.14,1862.88,4000.59,1863.22,4000,1863.22z"/>
			</g>
		</g>
		<g>
			<g>
				<path d="M4000,1827.1c-0.2,0-0.4-0.04-0.6-0.13c-230.02-100.51-471.23-141.39-806.5-136.67c-30.9,0.43-63.16,1.49-94.36,2.5
					c-138.35,4.51-281.42,9.17-410.2-32.33c-104.54-33.69-196.04-95.69-284.52-155.64c-118.48-80.27-240.99-163.28-394.35-176.57
					c-178.67-15.48-277.4,86.98-381.93,195.45c-64.17,66.59-130.52,135.45-217.62,176.36c-68.29,32.08-127.99,22.08-197.12,10.5
					c-3.92-0.66-7.88-1.32-11.87-1.98c-118.13-19.56-239.51-23.02-353.07-23.84c-122.12-0.88-246.26,3.35-366.32,7.45
					c-157.83,5.38-321.02,10.95-481.6,4.96c-0.83-0.03-1.47-0.73-1.44-1.56c0.03-0.83,0.71-1.48,1.56-1.44
					c160.47,5.99,323.61,0.42,481.38-4.96c120.09-4.1,244.26-8.33,366.44-7.45c113.68,0.82,235.2,4.28,353.54,23.88
					c4,0.66,7.96,1.33,11.88,1.98c68.63,11.5,127.9,21.42,195.35-10.26c86.6-40.68,152.76-109.34,216.74-175.73
					c52.83-54.82,102.73-106.6,163.33-144.22c32.62-20.25,65.17-34.35,99.5-43.12c38.45-9.82,78.19-12.77,121.51-9.02
					c69.18,5.99,137.99,26.54,210.36,62.82c64.51,32.34,125.98,73.98,185.41,114.25c88.31,59.83,179.63,121.71,283.76,155.27
					c128.28,41.34,271.08,36.69,409.18,32.19c31.21-1.02,63.48-2.07,94.41-2.5c158.47-2.23,289.3,5.44,411.71,24.12
					c142.58,21.76,272.12,58.66,396.03,112.8c0.76,0.33,1.11,1.22,0.77,1.98C4001.13,1826.76,4000.58,1827.1,4000,1827.1z"/>
			</g>
		</g>
		<g>
			<g>
				<path d="M4000,1791.58c-0.21,0-0.42-0.04-0.62-0.14c-226.49-103.24-464.95-142.08-773.19-125.94
					c-23.52,1.23-47.73,2.74-71.15,4.2c-147.79,9.21-300.6,18.74-441.65-27.66c-104.25-34.29-197.97-95.12-288.61-153.96
					c-125.79-81.65-255.86-166.08-414.28-178.59c-181.75-14.35-288.12,90.17-400.75,200.83
					c-71.95,70.69-146.34,143.78-242.47,183.74c-66.7,27.73-123.09,19.25-184.65,6.28c-123.5-26.02-250.66-29.58-370.32-31
					c-117.38-1.4-236.71,2.42-352.12,6.11c-150.84,4.82-306.81,9.8-460.25,3.22c-0.83-0.04-1.47-0.74-1.43-1.56
					c0.04-0.83,0.74-1.47,1.56-1.43c153.33,6.58,309.25,1.6,460.03-3.22c115.44-3.69,234.8-7.5,352.25-6.11
					c119.81,1.42,247.15,4.99,370.91,31.07c61.07,12.87,116.98,21.29,182.88-6.11c95.59-39.74,169.77-112.63,241.52-183.11
					c54.29-53.34,110.44-108.5,174.41-147.09c34.44-20.78,68.47-35.33,104.02-44.49c39.85-10.27,80.62-13.57,124.66-10.09
					c71.44,5.64,143.22,26.25,219.45,63.02c67.94,32.77,133.16,75.1,196.23,116.04c90.48,58.73,184.03,119.46,287.91,153.62
					c140.5,46.21,293.02,36.7,440.52,27.51c23.42-1.46,47.64-2.97,71.18-4.2c308.74-16.17,547.64,22.75,774.59,126.2
					c0.75,0.34,1.09,1.23,0.74,1.99C4001.11,1791.25,4000.57,1791.58,4000,1791.58z"/>
			</g>
		</g>
		<g>
			<g>
				<path d="M4000,1757.27c-0.21,0-0.43-0.05-0.64-0.14c-177.62-84.02-357.58-124-566.51-124c-58.31,0-118.84,3.11-182.26,9.24
					c-12.66,1.22-25.35,2.49-38.06,3.75c-154.46,15.36-314.17,31.25-465.85-17.42c-107.92-34.63-206.36-95.84-301.56-155.04
					c-132.82-82.59-270.16-167.99-433.89-180.77c-185.14-14.46-300.16,92.45-421.93,205.63
					c-77.72,72.24-158.09,146.93-258.29,186.78c-31.6,12.57-60.62,17.74-90.45,17.74c-29.97,0-60.77-5.22-95.87-13.4
					c-121.41-28.3-248.77-32.79-358.62-34.78c-115.83-2.09-233.57,1.52-347.44,5.02c-143.77,4.42-292.44,8.98-438.7,2.1
					c-0.83-0.04-1.47-0.74-1.43-1.57c0.04-0.83,0.75-1.46,1.57-1.43c146.14,6.88,294.75,2.31,438.47-2.1
					c113.9-3.5,231.69-7.12,347.59-5.02c110,1.99,237.56,6.48,359.25,34.86c69.46,16.19,121.92,20.7,184.53-4.21
					c99.67-39.64,179.83-114.14,257.35-186.19c58.61-54.47,119.21-110.79,186.95-150.31c36.48-21.28,72.17-36.2,109.09-45.62
					c41.4-10.56,83.32-13.99,128.16-10.49c73.8,5.76,148.56,26.65,228.55,63.85c71.28,33.16,140.12,75.96,206.69,117.36
					c95.04,59.1,193.33,120.21,300.89,154.73c151.09,48.48,310.48,32.63,464.63,17.29c12.71-1.26,25.4-2.53,38.06-3.75
					c291.22-28.17,522.63,7.31,750.35,115.03c0.75,0.35,1.07,1.25,0.71,2C4001.1,1756.95,4000.56,1757.27,4000,1757.27z"/>
			</g>
		</g>
		<g>
			<g>
				<path d="M4000,1724.76c-0.22,0-0.45-0.05-0.66-0.15c-228.22-111.69-451.97-143.66-725.5-103.66
					c-91.28,13.35-184.35,26.95-277.88,26.95c-72.38,0-145.03-8.14-217.41-30.86c-111.47-34.98-214.39-96.55-313.92-156.08
					c-139.54-83.47-283.82-169.78-452.75-182.85c-188.71-14.6-312.25,94.18-443.04,209.34c-83.65,73.65-170.14,149.82-274.75,189.41
					c-31.88,12.07-60.69,17.09-89.7,17.09c-31.2,0-62.62-5.81-98.39-14.93c-113.51-28.94-233.7-35.36-346.67-37.99
					c-114.13-2.65-230.14,0.93-342.33,4.39c-136.68,4.22-278.01,8.59-417.07,1.7c-0.83-0.04-1.46-0.75-1.42-1.57
					c0.04-0.83,0.74-1.45,1.57-1.42c138.94,6.88,280.21,2.51,416.83-1.71c112.23-3.47,228.28-7.05,342.49-4.39
					c113.15,2.63,233.55,9.07,347.34,38.08c68.43,17.45,120.85,22.7,186.28-2.07c104.09-39.4,190.38-115.38,273.83-188.86
					c62.86-55.35,127.87-112.59,199.36-152.83c38.51-21.67,75.85-36.88,114.15-46.49c42.97-10.78,86.06-14.3,131.74-10.76
					c76.12,5.89,153.76,27.05,237.35,64.67c74.49,33.53,146.79,76.78,216.71,118.6c99.38,59.45,202.15,120.92,313.28,155.8
					c165.26,51.86,332.36,27.43,493.96,3.8c135.61-19.83,257.13-21.97,371.53-6.55c120.71,16.27,237.07,52.41,355.73,110.48
					c0.74,0.36,1.05,1.26,0.69,2.01C4001.09,1724.45,4000.55,1724.76,4000,1724.76z"/>
			</g>
		</g>
		<g>
			<g>
				<path d="M4000,1694.63c-0.23,0-0.46-0.05-0.68-0.16c-232.14-117.35-440.72-145.58-697.46-94.38
					c-77.13,15.38-159.27,30.78-241.01,35.4c-87.77,4.95-166.79-3.28-241.6-25.16c-119.99-35.1-230.75-98.72-337.88-160.26
					c-145.2-83.41-295.34-169.65-469.14-184.57c-192.05-16.49-330.66,99.52-464.7,211.7c-91.92,76.93-186.96,156.47-299.25,194.37
					c-27.8,9.38-53.15,13.18-77.97,13.18c-36.75,0-72.37-8.32-113.23-19.18c-102.37-27.21-208.79-34.15-299.4-37.34
					c-120.15-4.24-242.28-0.18-360.39,3.75c-130.22,4.33-264.88,8.8-397.39,2.18c-0.83-0.04-1.46-0.75-1.42-1.57
					c0.04-0.83,0.74-1.45,1.57-1.42c132.38,6.62,266.98,2.15,397.14-2.18c118.16-3.93,240.35-7.99,360.6-3.75
					c90.77,3.2,197.41,10.15,300.06,37.44c67.94,18.06,121.3,29.06,189.47,6.06c111.76-37.71,206.58-117.08,298.28-193.82
					c67.3-56.32,136.89-114.56,212.26-155.38c40.6-21.99,79.64-37.34,119.34-46.93c44.55-10.76,88.81-14.06,135.28-10.07
					c78.29,6.72,158.48,28.38,245.15,66.23c77.25,33.73,152.48,76.94,225.22,118.73c106.97,61.45,217.58,124.98,337.22,159.98
					c161.04,47.1,313.19,23.21,481.18-10.3c128.74-25.67,245.69-30.87,357.54-15.89c112.78,15.11,224.6,51.26,341.85,110.54
					c0.74,0.37,1.04,1.28,0.66,2.02C4001.07,1694.33,4000.55,1694.63,4000,1694.63z"/>
			</g>
		</g>
		<g>
			<g>
				<path d="M1134.74,1675.11c-38.35,0-74.76-9.1-116.62-20.99c-100.78-28.64-207.18-35.87-288.61-38.96
					c-117.96-4.48-237.84,0.04-353.77,4.42c-123.14,4.65-250.47,9.46-375.82,3.49c-0.83-0.04-1.47-0.74-1.43-1.57
					c0.04-0.83,0.74-1.47,1.57-1.43c125.22,5.97,252.49,1.16,375.56-3.49c115.98-4.38,235.92-8.91,354-4.42
					c81.6,3.1,188.23,10.35,289.32,39.07c67.46,19.17,120.63,31.03,190.74,8.87c116.99-36.98,218.34-117.47,316.34-195.3
					c71.28-56.61,144.98-115.14,223.89-156.17c42.51-22.1,83.12-37.53,124.15-47.15c46.06-10.8,91.47-14.08,138.83-10.01
					c80.33,6.89,163.02,28.81,252.77,67c79.99,34.04,158.15,77.59,233.74,119.71c110.79,61.74,225.34,125.58,348.22,160.94
					c172.22,49.56,327.93,17.44,472.66-19.72c124.25-31.9,237.93-40.46,347.54-26.17c106.64,13.9,215.52,50.35,332.86,111.43
					c0.74,0.38,1.02,1.29,0.64,2.02c-0.38,0.73-1.29,1.02-2.02,0.64c-233.7-121.65-436.55-147.08-678.27-85.02
					c-70.24,18.03-153.19,37.28-235.92,43.32c-83.83,6.13-161.79-1.6-238.32-23.63c-123.2-35.46-237.91-99.38-348.85-161.2
					c-150.89-84.09-306.92-171.04-485.3-186.34c-195.79-16.8-342.68,99.87-484.75,212.69c-98.22,78-199.79,158.66-317.3,195.81
					C1183.35,1671.57,1158.67,1675.11,1134.74,1675.11z"/>
			</g>
		</g>
		<g>
			<g>
				<path d="M1100.51,1663.89c-43.87,0-84.01-11.46-130.32-24.69c-76.8-21.93-162.08-33.46-276.51-37.38
					c-112.87-3.87-227.51,1.33-338.38,6.36c-116.4,5.28-236.77,10.74-355.36,5.72c-0.83-0.04-1.47-0.73-1.44-1.56
					s0.75-1.48,1.56-1.44c118.45,5.02,238.75-0.44,355.09-5.72c110.93-5.03,225.63-10.24,338.62-6.36
					c114.69,3.93,200.19,15.5,277.23,37.5c72.62,20.74,129.98,37.12,210.36,11.33c117.83-37.81,222.74-116.21,324.18-192.03
					c75.4-56.36,153.37-114.63,235.95-155.65c44.49-22.1,86.73-37.58,129.16-47.32c47.63-10.94,94.26-14.42,142.55-10.66
					c82.05,6.4,166.89,28.27,259.38,66.87c82.42,34.4,163.17,78.6,241.27,121.35c110.97,60.75,225.73,123.56,347.18,159.29
					c168.47,49.56,309.06,26.25,481.29-27.42c60.8-18.94,117.58-30.86,173.59-36.44c55.29-5.5,108.41-4.68,162.39,2.53
					c101.37,13.53,203.82,49.41,322.4,112.93c0.73,0.39,1.01,1.3,0.61,2.03c-0.39,0.73-1.3,1.01-2.03,0.61
					c-237.46-127.18-427.53-150.01-656.07-78.8c-172.78,53.84-313.84,77.21-483.03,27.43c-121.76-35.82-236.66-98.72-347.77-159.54
					c-155.96-85.37-317.23-173.65-499.44-187.86c-199.73-15.58-355.24,100.64-505.63,213.04
					c-101.65,75.97-206.75,154.52-325.06,192.49C1152.51,1660.05,1125.88,1663.89,1100.51,1663.89z"/>
			</g>
		</g>
		<g>
			<g>
				<path d="M1067.91,1652.56c-45.98,0-87.5-12.38-135.67-26.73c-74.01-22.06-158.48-33.88-265.84-37.22
					c-110.51-3.43-222.66,2.95-331.12,9.11c-109.81,6.24-223.36,12.7-335.34,8.99c-0.83-0.03-1.48-0.72-1.45-1.55
					c0.03-0.83,0.73-1.45,1.55-1.45c111.84,3.7,225.32-2.75,335.07-8.99c108.52-6.17,220.74-12.55,331.38-9.11
					c107.62,3.34,192.33,15.21,266.6,37.34c72.98,21.75,130.63,38.93,211.68,14.98c123.61-36.53,235.05-115.44,342.83-191.75
					c78.94-55.9,160.57-113.7,246.3-154.33c46.18-21.89,89.84-37.2,133.47-46.79c48.98-10.78,96.68-14.13,145.8-10.27
					c83.6,6.58,170.34,28.67,265.18,67.53c84.51,34.63,167.5,79.08,247.77,122.06c113.78,60.94,231.43,123.95,355.26,159.96
					c176.97,51.47,317.51,22.99,474.09-35.6c59.32-22.2,114.93-36.38,170.01-43.35c53.64-6.79,105.54-6.58,158.65,0.64
					c96.26,13.09,196.86,49.85,316.59,115.67c0.73,0.4,0.99,1.31,0.59,2.04c-0.4,0.73-1.31,0.99-2.04,0.59
					c-203.54-111.89-390.73-167.08-642.75-72.77c-92.3,34.54-164.7,53-234.73,59.86c-79.56,7.79-158.47-0.12-241.24-24.2
					c-124.13-36.1-241.92-99.19-355.83-160.2c-160.31-85.86-326.08-174.64-511.77-189.25c-203.25-16-366.1,99.33-523.6,210.85
					c-107.98,76.46-219.63,155.51-343.72,192.18C1117.43,1649.15,1092.05,1652.56,1067.91,1652.56z"/>
			</g>
		</g>
		<g>
			<g>
				<path d="M1036.56,1640.28c-40.17,0-79.07-9.11-127.2-24.19c-82.1-25.71-172.56-39.19-276.54-41.18
					c-105.47-2.03-212.35,5.77-315.72,13.32c-103.79,7.57-211.12,15.41-317.13,13.31c-0.83-0.02-1.49-0.7-1.47-1.53
					c0.02-0.83,0.75-1.48,1.53-1.47c105.87,2.09,213.12-5.73,316.85-13.3c103.44-7.55,210.39-15.35,315.99-13.32
					c104.27,2,195,15.52,277.38,41.32c78.81,24.68,132.64,33.28,208.18,11.79c125.32-35.66,240.43-113.02,351.75-187.83
					c82.37-55.36,167.55-112.6,256.31-152.6c47.82-21.55,92.83-36.51,137.59-45.74c50.27-10.36,98.93-13.29,148.79-8.94
					c85.03,7.41,173.42,29.99,270.22,69.02c86.27,34.78,171.12,79.13,253.19,122.02c119.22,62.31,242.51,126.75,372.47,163.09
					c177.09,49.52,312.5,16.55,461.33-48.19c57.32-24.93,111.55-40.85,165.79-48.64c51.92-7.46,102.64-7.3,155.08,0.5
					c92.19,13.72,187.74,50.54,309.8,119.38c0.72,0.41,0.98,1.32,0.57,2.04c-0.41,0.72-1.32,0.98-2.04,0.57
					c-212.76-120-392.03-173.74-627.99-71.1c-88.23,38.38-158.22,59.38-226.94,68.08c-76.78,9.72-154.11,3.26-236.39-19.75
					c-130.27-36.43-253.69-100.93-373.05-163.32c-163.9-85.66-333.37-174.24-522.28-190.71
					c-206.32-17.99-376.33,96.28-540.76,206.78c-111.51,74.94-226.82,152.44-352.6,188.22
					C1089.24,1636.44,1062.63,1640.28,1036.56,1640.28z"/>
			</g>
		</g>
		<g>
			<g>
				<path d="M1008.91,1626.78c-49.52,0-93-13.73-144.07-29.86c-76.3-24.1-162.64-35.9-263.95-36.08
					c-100.48-0.15-202.04,9.45-300.28,18.75c-98.31,9.31-199.97,18.99-300.61,18.78c-0.83,0-1.5-0.67-1.5-1.5
					c0-0.83,0.67-1.5,1.5-1.5c100.47,0.18,202.08-9.46,300.32-18.76c98.32-9.31,199.99-18.93,300.57-18.77
					c101.62,0.18,188.25,12.03,264.85,36.22c71.86,22.69,128.62,40.62,208.35,21.86c137.01-32.23,262.12-111.53,383.11-188.21
					c84.74-53.71,172.36-109.24,263.26-148.06c48.96-20.91,94.95-35.44,140.58-44.43c51.24-10.09,100.72-12.99,151.29-8.85
					c85.81,7.01,175.22,29.49,273.33,68.72c87.43,34.96,173.55,79.69,256.83,122.96c124.39,64.61,253.01,131.43,388.58,167.02
					c154.4,40.53,279.32,25.93,431.19-50.4c58.24-29.27,113.05-48.35,167.58-58.33c52.16-9.55,103.16-10.57,155.91-3.14
					c48.9,6.89,99.19,21.09,153.75,43.41c48.35,19.78,99.59,45.59,161.24,81.22c0.72,0.41,0.96,1.33,0.55,2.05
					c-0.41,0.72-1.33,0.96-2.05,0.55c-224.22-129.58-400.11-181.44-635.63-63.07c-97.67,49.09-184.27,72.76-274.64,72.77
					c-50.82,0-102.82-7.48-158.67-22.15c-135.89-35.67-264.67-102.57-389.2-167.25c-166.35-86.41-338.37-175.77-529.02-191.35
					c-209.34-17.11-384.19,93.71-553.28,200.89c-121.2,76.81-246.53,156.25-384.03,188.6
					C1051.13,1624.4,1029.49,1626.77,1008.91,1626.78z"/>
			</g>
		</g>
		<g>
			<g>
				<path d="M983.74,1611.49c-49.88,0-93.17-13.8-144.38-30.11l-8.91-2.84c-73.96-23.49-156.92-34.09-253.6-32.38
					c-97.59,1.72-196.02,13.86-291.2,25.59c-93.32,11.5-189.82,23.4-285.61,25.51c-0.86,0.02-1.51-0.64-1.53-1.47
					c-0.02-0.83,0.64-1.51,1.47-1.53c95.65-2.11,192.07-13.99,285.31-25.49c95.26-11.74,193.76-23.89,291.51-25.61
					c97.02-1.71,180.29,8.92,254.56,32.52l8.91,2.84c69.35,22.1,124.13,39.55,200.4,24.05c143.85-29.23,275.83-107.85,403.47-183.88
					c87.19-51.93,177.34-105.64,270.38-143.02c50.11-20.14,97.05-34.08,143.49-42.61c52.14-9.58,102.34-12.16,153.45-7.88
					c86.21,7.21,176.16,29.82,274.99,69.13c88.07,35.02,174.91,79.77,258.88,123.04c125.36,64.6,255,131.4,391.3,167.17
					c158.63,41.63,282.46,25.84,427.4-54.5c57.6-31.92,112.11-52.64,166.66-63.32c51.62-10.11,102.44-11.05,155.37-2.86
					c111.78,17.29,221.81,75.75,314.71,130.64c0.71,0.42,0.95,1.34,0.53,2.05c-0.42,0.71-1.34,0.95-2.05,0.53
					c-235.41-139.11-406.13-190.58-633.76-64.42c-73.77,40.88-140,64.07-208.43,72.96c-68.36,8.88-140.71,2.93-221.19-18.19
					c-136.62-35.85-266.4-102.73-391.91-167.4c-167.75-86.44-341.2-175.82-532.75-191.85c-211.63-17.71-391.55,89.46-565.53,193.1
					c-127.85,76.16-260.05,154.91-404.4,184.24C1020.77,1609.68,1001.82,1611.49,983.74,1611.49z"/>
			</g>
		</g>
	</g>
</g>
</svg>
