<?xml version="1.0" encoding="utf-8"?>
<!-- Generator: Adobe Illustrator 27.9.0, SVG Export Plug-In . SVG Version: 6.00 Build 0)  -->
<svg version="1.1" id="Layer_1" xmlns="http://www.w3.org/2000/svg" xmlns:xlink="http://www.w3.org/1999/xlink" x="0px" y="0px"
	 viewBox="0 0 4000 4000" style="enable-background:new 0 0 4000 4000;" xml:space="preserve">
<g>
	<g>
		<path d="M4697.15,3034.68h-5293.7l2.55-6.76L236.75,825.8l1.22-3.23h3624.64l1.22,3.23L4697.15,3034.68z M-582.1,3024.68h5264.78
			L3855.7,832.56H244.89L-582.1,3024.68z"/>
	</g>
	<g>
		<path d="M4584.12,2754.25H-483.54c-2.76,0-5-2.24-5-5s2.24-5,5-5h5067.66c2.76,0,5,2.24,5,5S4586.88,2754.25,4584.12,2754.25z"/>
	</g>
	<g>
		<path d="M4486.48,2495.44H-385.9c-2.76,0-5-2.24-5-5s2.24-5,5-5h4872.38c2.76,0,5,2.24,5,5S4489.25,2495.44,4486.48,2495.44z"/>
	</g>
	<g>
		<path d="M4396.09,2255.83H-295.5c-2.76,0-5-2.24-5-5s2.24-5,5-5h4691.59c2.76,0,5,2.24,5,5S4398.85,2255.83,4396.09,2255.83z"/>
	</g>
	<g>
		<path d="M4312.17,2033.36H-211.58c-2.76,0-5-2.24-5-5s2.24-5,5-5h4523.74c2.76,0,5,2.24,5,5S4314.93,2033.36,4312.17,2033.36z"/>
	</g>
	<g>
		<path d="M4234.04,1826.27H-133.45c-2.76,0-5-2.24-5-5s2.24-5,5-5h4367.49c2.76,0,5,2.24,5,5S4236.8,1826.27,4234.04,1826.27z"/>
	</g>
	<g>
		<path d="M4161.13,1633H-60.54c-2.76,0-5-2.24-5-5s2.24-5,5-5h4221.66c2.76,0,5,2.24,5,5S4163.89,1633,4161.13,1633z"/>
	</g>
	<g>
		<path d="M4092.93,1452.23H7.66c-2.76,0-5-2.24-5-5s2.24-5,5-5h4085.27c2.76,0,5,2.24,5,5S4095.69,1452.23,4092.93,1452.23z"/>
	</g>
	<g>
		<path d="M4029,1282.76H71.59c-2.76,0-5-2.24-5-5s2.24-5,5-5H4029c2.76,0,5,2.24,5,5S4031.76,1282.76,4029,1282.76z"/>
	</g>
	<g>
		<path d="M3968.95,1123.59H131.64c-2.76,0-5-2.24-5-5s2.24-5,5-5h3837.3c2.76,0,5,2.24,5,5S3971.71,1123.59,3968.95,1123.59z"/>
	</g>
	<g>
		<path d="M3912.43,973.79H188.15c-2.76,0-5-2.24-5-5s2.24-5,5-5h3724.28c2.76,0,5,2.24,5,5S3915.2,973.79,3912.43,973.79z"/>
	</g>
	<g>
		<path d="M4209.98,3034.68c-2.14,0-4.11-1.38-4.78-3.53L3525.49,829.04c-0.81-2.64,0.66-5.44,3.3-6.25
			c2.64-0.81,5.44,0.67,6.25,3.3l679.71,2202.12c0.81,2.64-0.66,5.44-3.3,6.25C4210.97,3034.61,4210.47,3034.68,4209.98,3034.68z"/>
	</g>
	<g>
		<path d="M3730.05,3034.68c-2.26,0-4.31-1.54-4.86-3.83L3196.53,828.73c-0.64-2.69,1.01-5.38,3.7-6.03
			c2.69-0.64,5.38,1.01,6.03,3.69l528.67,2202.12c0.64,2.68-1.01,5.38-3.7,6.03C3730.83,3034.63,3730.44,3034.68,3730.05,3034.68z"
			/>
	</g>
	<g>
		<path d="M3250.12,3034.68c-2.39,0-4.5-1.72-4.92-4.16L2867.58,828.41c-0.47-2.72,1.36-5.31,4.08-5.77
			c2.72-0.47,5.31,1.36,5.77,4.08l377.62,2202.12c0.47,2.72-1.36,5.31-4.08,5.77C3250.68,3034.65,3250.4,3034.68,3250.12,3034.68z"
			/>
	</g>
	<g>
		<path d="M2770.19,3034.68c-2.53,0-4.7-1.92-4.97-4.49L2538.65,828.07c-0.28-2.75,1.71-5.2,4.46-5.49c2.75-0.29,5.2,1.71,5.49,4.46
			l226.57,2202.12c0.28,2.75-1.71,5.2-4.46,5.49C2770.53,3034.67,2770.36,3034.68,2770.19,3034.68z"/>
	</g>
	<g>
		<path d="M2290.26,3034.68c-2.68,0-4.9-2.13-4.99-4.83l-75.52-2202.11c-0.09-2.76,2.07-5.07,4.83-5.17
			c2.73-0.1,5.07,2.07,5.17,4.83l75.52,2202.11c0.09,2.76-2.07,5.07-4.83,5.17C2290.37,3034.68,2290.31,3034.68,2290.26,3034.68z"/>
	</g>
	<g>
		<path d="M1810.33,3034.68c-0.06,0-0.12,0-0.17,0c-2.76-0.09-4.92-2.41-4.83-5.17l75.52-2202.11c0.1-2.76,2.41-4.91,5.17-4.83
			c2.76,0.09,4.92,2.41,4.83,5.17l-75.52,2202.11C1815.23,3032.55,1813.01,3034.68,1810.33,3034.68z"/>
	</g>
	<g>
		<path d="M1330.4,3034.68c-0.17,0-0.34-0.01-0.52-0.03c-2.75-0.28-4.74-2.74-4.46-5.49l226.57-2202.12
			c0.28-2.75,2.75-4.74,5.49-4.46c2.75,0.28,4.74,2.74,4.46,5.49l-226.57,2202.12C1335.11,3032.76,1332.93,3034.68,1330.4,3034.68z"
			/>
	</g>
	<g>
		<path d="M850.47,3034.68c-0.28,0-0.57-0.02-0.85-0.07c-2.72-0.47-4.55-3.05-4.08-5.77l377.62-2202.12
			c0.47-2.72,3.05-4.56,5.77-4.08c2.72,0.47,4.55,3.05,4.08,5.77L855.39,3030.52C854.98,3032.96,852.86,3034.68,850.47,3034.68z"/>
	</g>
	<g>
		<path d="M370.54,3034.68c-0.39,0-0.78-0.04-1.17-0.14c-2.68-0.65-4.34-3.34-3.69-6.03L894.34,826.39
			c0.65-2.69,3.35-4.34,6.03-3.69c2.68,0.64,4.34,3.34,3.69,6.03L375.4,3030.84C374.85,3033.14,372.8,3034.68,370.54,3034.68z"/>
	</g>
	<g>
		<path d="M-109.4,3034.68c-0.49,0-0.98-0.07-1.48-0.22c-2.64-0.81-4.12-3.61-3.3-6.25L565.54,826.09c0.81-2.64,3.61-4.11,6.25-3.3
			c2.64,0.81,4.12,3.61,3.3,6.25l-679.71,2202.12C-105.28,3033.3-107.26,3034.68-109.4,3034.68z"/>
	</g>
</g>
</svg>
